<svg xmlns="http://www.w3.org/2000/svg" viewBox="0 0 100 100" width="100" height="100">
  <rect x="5" y="10" width="20" height="80" rx="3" fill="#c8c3b8"/>
  <rect x="75" y="10" width="20" height="80" rx="3" fill="#c8c3b8"/>
  <polygon points="15,10 50,50 85,10 85,30 50,70 15,30" fill="#c8c3b8"/>
  <g opacity="0.4" stroke="#a0977f" stroke-width="1.5" fill="none">
    <line x1="20" y1="25" x2="50" y2="55"/>
    <line x1="80" y1="25" x2="50" y2="55"/>
    <line x1="25" y1="20" x2="55" y2="50"/>
    <line x1="75" y1="20" x2="45" y2="50"/>
    <line x1="15" y1="35" x2="45" y2="65"/>
    <line x1="85" y1="35" x2="55" y2="65"/>
    <line x1="20" y1="45" x2="40" y2="65"/>
    <line x1="80" y1="45" x2="60" y2="65"/>
    <line x1="25" y1="55" x2="35" y2="65"/>
    <line x1="75" y1="55" x2="65" y2="65"/>
  </g>
  <text x="50" y="98" text-anchor="middle" font-family="'DM Sans',sans-serif" font-size="11" font-weight="600" letter-spacing="3" fill="#c8c3b8">MONday</text>
</svg>
